<svg width="128" height="128" viewBox="0 0 128 128" fill="none" xmlns="http://www.w3.org/2000/svg">
<path d="M38.4 0H89.6C99.7843 0 109.552 4.0457 116.753 11.2471C123.954 18.4485 128 28.2157 128 38.4V89.6C128 99.7843 123.954 109.552 116.753 116.753C109.552 123.954 99.7843 128 89.6 128H38.4C28.2157 128 18.4485 123.954 11.2471 116.753C4.0457 109.552 0 99.7843 0 89.6V38.4C0 28.2157 4.0457 18.4485 11.2471 11.2471C18.4485 4.0457 28.2157 0 38.4 0V0ZM76.8 57.6C75.1026 57.6 73.4748 58.2743 72.2745 59.4745C71.0743 60.6748 70.4 62.3026 70.4 64C70.4 65.6974 71.0743 67.3253 72.2745 68.5255C73.4748 69.7257 75.1026 70.4 76.8 70.4H96C97.6974 70.4 99.3253 69.7257 100.525 68.5255C101.726 67.3253 102.4 65.6974 102.4 64C102.4 62.3026 101.726 60.6748 100.525 59.4745C99.3253 58.2743 97.6974 57.6 96 57.6H76.8ZM64 83.2C62.3026 83.2 60.6748 83.8743 59.4745 85.0745C58.2743 86.2748 57.6 87.9026 57.6 89.6C57.6 91.2974 58.2743 92.9253 59.4745 94.1255C60.6748 95.3257 62.3026 96 64 96H96C97.6974 96 99.3253 95.3257 100.525 94.1255C101.726 92.9253 102.4 91.2974 102.4 89.6C102.4 87.9026 101.726 86.2748 100.525 85.0745C99.3253 83.8743 97.6974 83.2 96 83.2H64ZM64 32C62.3026 32 60.6748 32.6743 59.4745 33.8745C58.2743 35.0748 57.6 36.7026 57.6 38.4C57.6 40.0974 58.2743 41.7253 59.4745 42.9255C60.6748 44.1257 62.3026 44.8 64 44.8H96C97.6974 44.8 99.3253 44.1257 100.525 42.9255C101.726 41.7253 102.4 40.0974 102.4 38.4C102.4 36.7026 101.726 35.0748 100.525 33.8745C99.3253 32.6743 97.6974 32 96 32H64ZM37.2992 65.5552L32.7744 61.0304C32.184 60.4191 31.4778 59.9316 30.697 59.5961C29.9162 59.2607 29.0764 59.0842 28.2266 59.0768C27.3768 59.0694 26.534 59.2313 25.7475 59.5531C24.961 59.8749 24.2464 60.3502 23.6455 60.9511C23.0446 61.552 22.5693 62.2666 22.2475 63.0531C21.9257 63.8396 21.7638 64.6824 21.7712 65.5322C21.7786 66.382 21.9551 67.2218 22.2906 68.0026C22.626 68.7834 23.1135 69.4896 23.7248 70.08L32.7744 79.1296C33.3688 79.7247 34.0746 80.1967 34.8516 80.5188C35.6285 80.8409 36.4613 81.0066 37.3024 81.0066C38.1435 81.0066 38.9763 80.8409 39.7532 80.5188C40.5302 80.1967 41.236 79.7247 41.8304 79.1296L59.9296 61.0304C60.5246 60.4362 60.9968 59.7306 61.3192 58.9539C61.6415 58.1772 61.8078 57.3447 61.8084 56.5037C61.809 55.6628 61.6439 54.83 61.3227 54.0528C61.0014 53.2757 60.5302 52.5694 59.936 51.9744C59.3418 51.3794 58.6362 50.9072 57.8595 50.5848C57.0828 50.2625 56.2503 50.0962 55.4093 50.0956C54.5684 50.095 53.7356 50.2601 52.9584 50.5814C52.1813 50.9026 51.475 51.3738 50.88 51.968L37.2992 65.5488V65.5552Z" fill="#E5E5E5"/>
</svg>
